<svg width="18" height="17" viewBox="0 0 18 17" fill="none" xmlns="http://www.w3.org/2000/svg">
    <path d="M15.0767 10.5736C14.6372 9.79252 13.9342 9.79252 13.4947 10.5736L10.7201 15.4776C10.2807 16.2459 10.6448 16.8861 11.5111 16.8861H17.0101C17.8889 16.8861 18.253 16.2459 17.8136 15.4776L15.0767 10.5736Z" fill="#E3453D"/>
    <path d="M11.8627 4.79904L10.4188 2.19977L9.80363 1.0858C9.36424 0.304735 8.66115 0.304735 8.22171 1.0858L0.186618 15.4651C-0.252802 16.2461 0.111289 16.8735 0.990127 16.8735H3.22489H4.75659H5.02024C5.74844 16.8735 6.65236 16.3485 7.01646 15.6955L11.8627 7.14223C12.2142 6.51483 12.2142 5.45206 11.8627 4.79904Z" fill="#E3453D"/>
</svg>
