<svg width="12" height="12" viewBox="0 0 12 12" fill="none" xmlns="http://www.w3.org/2000/svg">
<path fill-rule="evenodd" clip-rule="evenodd" d="M0 7.6C0 7.26863 0.268629 7 0.6 7C0.931371 7 1.2 7.26863 1.2 7.6V10.8H10.8V7.6C10.8 7.26863 11.0686 7 11.4 7C11.7314 7 12 7.26863 12 7.6V11C12 11.5523 11.5523 12 11 12H1C0.447715 12 0 11.5523 0 11V7.6Z" fill="white"/>
<path fill-rule="evenodd" clip-rule="evenodd" d="M6.00006 8L3.00006 5C2.76575 4.76569 2.76575 4.38579 3.00006 4.15147C3.23438 3.91716 3.61427 3.91716 3.84859 4.15147L5.40006 5.70294L5.40003 0.599977C5.40003 0.268604 5.66866 -2.70312e-05 6.00003 -2.70022e-05C6.3314 -2.69733e-05 6.60003 0.2686 6.60003 0.59997L6.60006 5.70294L8.15153 4.15147C8.38585 3.91716 8.76575 3.91716 9.00006 4.15147C9.23438 4.38579 9.23438 4.76569 9.00006 5L6.00006 8Z" fill="white"/>
</svg>
