<svg width="44" height="44" viewBox="0 0 44 44" fill="none" xmlns="http://www.w3.org/2000/svg">
<circle cx="22" cy="22" r="22" fill="#141414"/>
<path d="M20.4614 28.9631V32H23.4983V28.9631H20.4614ZM16.0017 18.5663H18.3273C18.3273 17.928 18.4002 17.3352 18.5462 16.788C18.6921 16.2408 18.9201 15.7665 19.2302 15.3653C19.5585 14.964 19.9598 14.6448 20.434 14.4077C20.9082 14.1705 21.4737 14.052 22.1303 14.052C23.1152 14.052 23.8904 14.3347 24.4559 14.9001C25.0396 15.4656 25.3679 16.2499 25.4408 17.2531C25.4773 17.928 25.3952 18.5025 25.1946 18.9767C24.994 19.451 24.7204 19.8887 24.3738 20.29C24.0455 20.6731 23.6807 21.047 23.2794 21.4118C22.8964 21.7583 22.5225 22.1414 22.1577 22.5609C21.8111 22.9804 21.5101 23.4637 21.2548 24.0109C21.0177 24.5399 20.8809 25.1874 20.8444 25.9535V27.2394H23.17V26.1724C23.17 25.6981 23.2338 25.2786 23.3615 24.9138C23.5074 24.5308 23.6898 24.1842 23.9087 23.8741C24.1458 23.5458 24.4012 23.2449 24.6748 22.9713C24.9666 22.6794 25.2584 22.3967 25.5503 22.1231C25.8421 21.8313 26.1248 21.5303 26.3984 21.2202C26.6903 20.9102 26.9456 20.5727 27.1645 20.2079C27.3834 19.8431 27.5567 19.4419 27.6843 19.0041C27.8302 18.5481 27.9032 18.0374 27.9032 17.472C27.9032 16.5964 27.7573 15.8212 27.4655 15.1464C27.1919 14.4715 26.7997 13.9061 26.289 13.4501C25.7783 12.9758 25.1672 12.6202 24.4559 12.383C23.7628 12.1277 22.9876 12 22.1303 12C21.1818 12 20.3246 12.1642 19.5585 12.4925C18.7924 12.8208 18.1449 13.2859 17.6159 13.8878C17.087 14.4715 16.6766 15.1646 16.3847 15.9672C16.1111 16.7697 15.9835 17.6361 16.0017 18.5663Z" fill="white"/>
</svg>
