<svg viewBox="0 0 35 30" fill="none" xmlns="http://www.w3.org/2000/svg">
    <path d="M2.43842 0H31.6995C33.0462 0 34.1379 1.0938 34.1379 2.44305V23.2943C34.1379 24.6436 33.0462 25.7374 31.6995 25.7374H21.9458L18.8915 29.18C17.9967 30.1885 16.4555 30.2793 15.449 29.3829C15.3775 29.3192 15.3099 29.2515 15.2465 29.18L12.1921 25.7374H2.43842C1.09173 25.7374 0 24.6436 0 23.2943V2.44305C0 1.0938 1.09173 0 2.43842 0ZM15.4766 4.875C15.4575 4.875 15.4384 4.87568 15.4193 4.87706C15.0376 4.90444 14.7537 5.19432 14.7853 5.52454L15.971 17.8995C16.0008 18.2106 16.3014 18.45 16.6622 18.45H17.4662C17.827 18.45 18.1276 18.2106 18.1574 17.8995L19.343 5.52454C19.3446 5.50804 19.3454 5.49154 19.3454 5.475C19.3454 5.14361 19.0349 4.875 18.6518 4.875H15.4766V4.875ZM16.7339 19.35C16.3508 19.35 16.0403 19.6186 16.0403 19.95V21.375C16.0403 21.7064 16.3508 21.975 16.7339 21.975H17.4276C17.8107 21.975 18.1212 21.7064 18.1212 21.375V19.95C18.1212 19.6186 17.8107 19.35 17.4276 19.35H16.7339Z"
          fill="#F3B041"></path>
</svg>
