<svg width="38" height="40" viewBox="0 0 38 40" fill="none" xmlns="http://www.w3.org/2000/svg">
<path fill-rule="evenodd" clip-rule="evenodd" d="M32.9473 3.91462H4.70676C2.97378 3.91462 1.56892 5.31948 1.56892 7.05247V35.293C1.56892 37.026 2.97378 38.4309 4.70676 38.4309H32.9473C34.6803 38.4309 36.0852 37.026 36.0852 35.293V7.05247C36.0852 5.31948 34.6803 3.91462 32.9473 3.91462ZM4.70676 2.3457C2.10729 2.3457 0 4.45299 0 7.05247V35.293C0 37.8925 2.10729 39.9998 4.70676 39.9998H32.9473C35.5468 39.9998 37.6541 37.8925 37.6541 35.293V7.05247C37.6541 4.45299 35.5468 2.3457 32.9473 2.3457H4.70676Z" fill="#B2F355"/>
<path d="M11.0748 3.12698C11.0748 1.4 12.3369 0 13.8938 0H23.7604C25.3173 0 26.5794 1.4 26.5794 3.12698V3.12698C26.5794 4.85397 25.3173 6.25396 23.7604 6.25396H13.8938C12.3369 6.25396 11.0748 4.85397 11.0748 3.12698V3.12698Z" fill="#B2F355"/>
<path fill-rule="evenodd" clip-rule="evenodd" d="M14.1534 31.5754L29.1834 16.5454C30.4508 15.2781 30.4508 13.2233 29.1834 11.9559C27.9161 10.6886 25.8613 10.6886 24.5939 11.9559L9.56396 26.9859L8.99028 32.1491L14.1534 31.5754ZM14.65 32.6086L29.9483 17.3103C31.6381 15.6205 31.6381 12.8808 29.9483 11.191C28.2585 9.5012 25.5188 9.5012 23.829 11.191L8.53073 26.4893L7.82555 32.8359C7.79493 33.1115 8.02779 33.3444 8.30339 33.3138L14.65 32.6086Z" fill="#B2F355"/>
<path d="M14.6499 31.8441L9.29547 26.4897L8.53056 32.6091L14.6499 31.8441Z" fill="#B2F355"/>
<path fill-rule="evenodd" clip-rule="evenodd" d="M28.4183 18.0759L23.0639 12.7215L23.8289 11.9565L29.1833 17.3109L28.4183 18.0759Z" fill="#B2F355"/>
<path fill-rule="evenodd" clip-rule="evenodd" d="M26.8887 19.6047L21.5343 14.2503L22.2992 13.4854L27.6536 18.8398L26.8887 19.6047Z" fill="#B2F355"/>
</svg>
