<svg width="12" height="12" viewBox="0 0 12 12" fill="none" xmlns="http://www.w3.org/2000/svg">
<path fill-rule="evenodd" clip-rule="evenodd" d="M6 0L9 3C9.23431 3.23431 9.23431 3.61421 9 3.84853C8.76569 4.08284 8.38579 4.08284 8.15147 3.84853L6.6 2.29706L6.60001 7.40001C6.60001 7.73138 6.33138 8.00001 6.00001 8.00001C5.66864 8.00001 5.40001 7.73138 5.40001 7.40001L5.4 2.29706L3.84853 3.84853C3.61421 4.08284 3.23431 4.08284 3 3.84853C2.76569 3.61421 2.76569 3.23431 3 3L6 0ZM0 7.60003C0 7.26865 0.268629 7.00003 0.6 7.00003C0.931371 7.00003 1.2 7.26866 1.2 7.60003V10.8H10.8V7.60003C10.8 7.26866 11.0686 7.00003 11.4 7.00003C11.7314 7.00003 12 7.26865 12 7.60003V11C12 11.5523 11.5523 12 11 12H1C0.447715 12 0 11.5523 0 11V7.60003Z" fill="white"/>
</svg>
